<svg id="Layer_1" enable-background="new 0 0 509.235 509.235" height="512" viewBox="0 0 509.235 509.235" width="512"
     xmlns="http://www.w3.org/2000/svg">
    <g>
        <ellipse cx="254.618" cy="254.618" fill="#ff7335" rx="65.926" ry="65.926"
                 transform="matrix(.383 -.924 .924 .383 -78.057 392.416)"/>
        <g>
            <path d="m327.922 358.534c-4.322 0-8.611-1.859-11.577-5.453-5.273-6.39-4.368-15.844 2.021-21.117 23.184-19.133 36.48-47.325 36.48-77.347s-13.296-58.214-36.48-77.347c-6.389-5.273-7.294-14.727-2.021-21.117 5.272-6.389 14.727-7.295 21.117-2.021 30.114 24.852 47.385 61.478 47.385 100.485s-17.271 75.633-47.385 100.485c-2.796 2.308-6.178 3.432-9.54 3.432z"
                  fill="#ff1e55"/>
        </g>
        <g>
            <path d="m184.03 359.623c-3.213 0-6.45-1.027-9.185-3.149-32.066-24.88-50.457-62.402-50.457-102.944 0-39.007 17.271-75.633 47.384-100.485 6.39-5.273 15.845-4.368 21.117 2.021 5.273 6.39 4.368 15.844-2.021 21.117-23.184 19.133-36.48 47.325-36.48 77.347 0 31.204 14.159 60.086 38.847 79.242 6.545 5.079 7.734 14.501 2.656 21.046-2.955 3.81-7.384 5.805-11.861 5.805z"
                  fill="#f96"/>
        </g>
        <g>
            <path d="m374.795 400.545c-4.075 0-8.135-1.65-11.095-4.901-5.578-6.125-5.134-15.612.992-21.19 33.982-30.944 53.473-75.032 53.473-120.961 0-45.447-18.201-87.673-51.25-118.9-6.021-5.689-6.291-15.183-.602-21.205 5.691-6.021 15.184-6.291 21.205-.601 18.947 17.902 33.859 39.028 44.32 62.791 10.833 24.608 16.327 50.823 16.327 77.915 0 54.353-23.063 106.527-63.274 143.143-2.876 2.618-6.492 3.909-10.096 3.909z"
                  fill="#bf2a51"/>
        </g>
        <g>
            <path d="m137.701 404.406c-3.483 0-6.982-1.206-9.82-3.667-42.458-36.814-66.81-90.133-66.81-146.284 0-55.946 24.204-109.136 66.404-145.932 6.244-5.445 15.72-4.796 21.164 1.448s4.796 15.72-1.448 21.164c-35.665 31.097-56.12 76.046-56.12 123.32 0 47.448 20.58 92.505 56.463 123.618 6.259 5.427 6.934 14.9 1.506 21.16-2.965 3.42-7.141 5.173-11.339 5.173z"
                  fill="#ff7335"/>
        </g>
        <g>
            <path d="m417.232 444.947c-4.038 0-8.062-1.62-11.019-4.818-5.624-6.083-5.25-15.574.833-21.197 22.536-20.832 40.284-45.538 52.75-73.43 12.899-28.861 19.44-59.665 19.44-91.553 0-31.565-6.414-62.082-19.062-90.703-12.223-27.657-29.646-52.227-51.783-73.027-6.038-5.672-6.333-15.166-.661-21.203 5.672-6.039 15.165-6.334 21.203-.661 25.082 23.566 44.825 51.412 58.681 82.764 14.347 32.464 21.622 67.061 21.622 102.829 0 36.134-7.419 71.056-22.051 103.794-14.131 31.618-34.242 59.617-59.774 83.218-2.886 2.669-6.537 3.987-10.179 3.987z"
                  fill="#ff1e55"/>
        </g>
        <g>
            <path d="m94.807 448.167c-3.563 0-7.139-1.262-10.002-3.826-53.895-48.27-84.805-117.421-84.805-189.723s30.91-141.453 84.804-189.723c6.17-5.527 15.653-5.005 21.181 1.167 5.527 6.171 5.005 15.654-1.167 21.181-47.547 42.585-74.818 103.592-74.818 167.375s27.271 124.79 74.819 167.375c6.171 5.527 6.693 15.01 1.167 21.181-2.964 3.309-7.063 4.993-11.179 4.993z"
                  fill="#f96"/>
        </g>
        <path d="m255.156 188.692v131.825c36.103-.292 65.387-29.741 65.387-65.913s-29.283-65.621-65.387-65.912z"
              fill="#ff1e55"/>
    </g>
</svg>